<svg width="128" height="128" xmlns="http://www.w3.org/2000/svg">

 <g>
  <title>background</title>
  <rect fill="none" id="canvas_background" height="602" width="802" y="-1" x="-1"/>
 </g>
 <g>
  <title>Layer 1</title>
  <path id="svg_1" d="m-2,0l128,0l0,128l-128,0l0,-128z" fill="none"/>
  <path id="svg_2" fill="#ffffff" d="m88.69,88.11c-9,18.4 -24.76,30.78 -45.61,34.85a39.73,39.73 0 0 1 -9.77,1.14c-12,0 -23,-5 -28.34,-13.19c-7.17,-10.91 -9.61,-34.04 14.03,-51.15c0.48,2.61 1.46,6.19 2.11,8.31a38.24,38.24 0 0 0 -11.11,13.03c-4.4,8.64 -3.91,17.27 1.3,25.25c3.6,5.38 9.3,8.65 16.63,9.65a44,44 0 0 0 26.55,-5c12.71,-6.68 21.18,-14.66 26.72,-25.57a9.32,9.32 0 0 1 -2.61,-6a9.12,9.12 0 0 1 8.78,-9.43l0.34,0a9.15,9.15 0 0 1 1,18.25l-0.02,-0.14zm28.67,-20.2c12.21,13.84 12.54,30.13 7.82,39.58c-4.4,8.63 -16,17.27 -31.6,17.27a50.48,50.48 0 0 1 -21,-5.05c2.29,-1.63 5.54,-4.24 7.33,-5.87a41.54,41.54 0 0 0 16,3.42c10.1,0 17.75,-4.72 22.31,-13.35c2.93,-5.7 3.1,-12.38 0.33,-19.22a43.61,43.61 0 0 0 -17.27,-20.85a62,62 0 0 0 -34.74,-10.59l-2.93,0a9.21,9.21 0 0 1 -8,5.54l-0.31,0a9.13,9.13 0 0 1 -0.3,-18.25l0.33,0a9,9 0 0 1 8,4.89l2.61,0c20.8,0 39.06,7.98 51.42,22.48zm-82.75,23a7.31,7.31 0 0 1 1.14,-4.73c-9.12,-15.8 -14,-35.83 -6.51,-56.68c5.37,-15.67 18.89,-26.26 33.55,-26.26c15.64,0 31.93,13.69 33.88,40.07c-2.44,-0.81 -6,-2 -8.14,-2.44c-0.53,-8.63 -7.82,-30.13 -25.09,-29.81c-6.19,0.17 -15.31,3.1 -20,9.12a43.69,43.69 0 0 0 -9.64,25.25c2.82333,12.05333 5.64667,24.10667 8.47,36.16a2.75,2.75 0 0 1 1.14,-0.16l0.32,0a9.12,9.12 0 0 1 0.33,18.24l-0.33,0a9.16,9.16 0 0 1 -9.12,-8.79l0,0.03z"/>
 </g>
</svg>